<?xml version="1.0" encoding="UTF-8"?> <svg xmlns="http://www.w3.org/2000/svg" width="137" height="60" viewBox="0 0 137 60" fill="none"> <path d="M136 1C126.953 12.7313 109.709 21.1489 91.9139 27.277M91.9139 27.277C86 29.5 88 29 81.2278 30.9483C78.0294 31.8685 74 32.2052 66.5815 32.2052C64.5189 31.568 63.5 30 64.1672 27.5025C64.9646 24.5175 72.4732 24.4218 73.5297 24.4726C84.5 25 82.0213 24.2556 91.9139 27.277ZM91.9139 27.277C97.4802 29.5398 100.312 33.3682 97.1655 39.5778C90.4758 52.7805 66.9876 50.9221 50.4202 51.8141C34.8354 52.6532 19.3382 54.0623 3.77771 54.9525M4.70235 54.9525C8.92782 54.9525 17.7285 47.5092 8.32197 51.8141C7.54113 52.1714 -0.376195 55.0914 1.2093 56.0809C2.00165 56.5754 11.6813 59.4379 10.9599 58.9427" stroke="#37416E" stroke-linecap="round"></path> </svg> 