<?xml version="1.0" encoding="UTF-8"?> <svg xmlns="http://www.w3.org/2000/svg" width="332" height="55" viewBox="0 0 332 55" fill="none"> <rect width="332" height="55" rx="10" fill="url(#paint0_linear_313_1099)"></rect> <path d="M46.494 21.12H56.106V33H54.198V22.83H48.402V33H46.494V21.12ZM64.6231 33.198C63.4831 33.198 62.4331 32.928 61.4731 32.388C60.5251 31.848 59.7751 31.11 59.2231 30.174C58.6711 29.238 58.3951 28.2 58.3951 27.06C58.3951 25.92 58.6711 24.882 59.2231 23.946C59.7871 23.01 60.5431 22.272 61.4911 21.732C62.4391 21.192 63.4831 20.922 64.6231 20.922C65.7511 20.922 66.7951 21.192 67.7551 21.732C68.7151 22.272 69.4711 23.01 70.0231 23.946C70.5871 24.882 70.8691 25.92 70.8691 27.06C70.8691 28.2 70.5871 29.238 70.0231 30.174C69.4711 31.11 68.7151 31.848 67.7551 32.388C66.7951 32.928 65.7511 33.198 64.6231 33.198ZM64.6411 31.452C65.4451 31.452 66.1711 31.266 66.8191 30.894C67.4671 30.51 67.9771 29.982 68.3491 29.31C68.7211 28.638 68.9071 27.882 68.9071 27.042C68.9071 26.226 68.7211 25.482 68.3491 24.81C67.9771 24.138 67.4671 23.616 66.8191 23.244C66.1711 22.86 65.4451 22.668 64.6411 22.668C63.8251 22.668 63.0931 22.86 62.4451 23.244C61.7971 23.616 61.2871 24.138 60.9151 24.81C60.5551 25.47 60.3751 26.214 60.3751 27.042C60.3751 27.882 60.5551 28.638 60.9151 29.31C61.2871 29.982 61.7971 30.51 62.4451 30.894C63.0931 31.266 63.8251 31.452 64.6411 31.452ZM73.16 21.12H82.772V33H80.864V22.83H75.068V33H73.16V21.12ZM85.7811 21.12H90.1191C90.9111 21.12 91.6131 21.276 92.2251 21.588C92.8371 21.888 93.3111 22.314 93.6471 22.866C93.9831 23.418 94.1511 24.048 94.1511 24.756C94.1511 25.464 93.9831 26.094 93.6471 26.646C93.3111 27.198 92.8371 27.63 92.2251 27.942C91.6131 28.254 90.9111 28.41 90.1191 28.41H87.6891V33H85.7811V21.12ZM90.0831 26.718C90.7551 26.718 91.2711 26.544 91.6311 26.196C92.0031 25.836 92.1891 25.362 92.1891 24.774C92.1891 24.186 92.0031 23.712 91.6311 23.352C91.2711 22.992 90.7551 22.812 90.0831 22.812H87.6891V26.718H90.0831ZM101.783 33.198C100.643 33.198 99.5933 32.928 98.6333 32.388C97.6853 31.848 96.9353 31.11 96.3833 30.174C95.8313 29.238 95.5553 28.2 95.5553 27.06C95.5553 25.92 95.8313 24.882 96.3833 23.946C96.9473 23.01 97.7033 22.272 98.6513 21.732C99.5993 21.192 100.643 20.922 101.783 20.922C102.911 20.922 103.955 21.192 104.915 21.732C105.875 22.272 106.631 23.01 107.183 23.946C107.747 24.882 108.029 25.92 108.029 27.06C108.029 28.2 107.747 29.238 107.183 30.174C106.631 31.11 105.875 31.848 104.915 32.388C103.955 32.928 102.911 33.198 101.783 33.198ZM101.801 31.452C102.605 31.452 103.331 31.266 103.979 30.894C104.627 30.51 105.137 29.982 105.509 29.31C105.881 28.638 106.067 27.882 106.067 27.042C106.067 26.226 105.881 25.482 105.509 24.81C105.137 24.138 104.627 23.616 103.979 23.244C103.331 22.86 102.605 22.668 101.801 22.668C100.985 22.668 100.253 22.86 99.6053 23.244C98.9573 23.616 98.4473 24.138 98.0753 24.81C97.7153 25.47 97.5353 26.214 97.5353 27.042C97.5353 27.882 97.7153 28.638 98.0753 29.31C98.4473 29.982 98.9573 30.51 99.6053 30.894C100.253 31.266 100.985 31.452 101.801 31.452ZM110.32 21.12H117.808V22.83H112.228V25.872H114.784C115.576 25.872 116.272 26.022 116.872 26.322C117.484 26.622 117.952 27.042 118.276 27.582C118.612 28.11 118.78 28.722 118.78 29.418C118.78 30.114 118.612 30.738 118.276 31.29C117.952 31.83 117.484 32.25 116.872 32.55C116.272 32.85 115.576 33 114.784 33H110.32V21.12ZM114.712 31.326C115.384 31.326 115.906 31.152 116.278 30.804C116.662 30.456 116.854 29.994 116.854 29.418C116.854 28.842 116.662 28.38 116.278 28.032C115.906 27.684 115.384 27.51 114.712 27.51H112.228V31.326H114.712ZM126.463 33.198C125.323 33.198 124.273 32.928 123.313 32.388C122.365 31.848 121.615 31.11 121.063 30.174C120.511 29.238 120.235 28.2 120.235 27.06C120.235 25.92 120.511 24.882 121.063 23.946C121.627 23.01 122.383 22.272 123.331 21.732C124.279 21.192 125.323 20.922 126.463 20.922C127.591 20.922 128.635 21.192 129.595 21.732C130.555 22.272 131.311 23.01 131.863 23.946C132.427 24.882 132.709 25.92 132.709 27.06C132.709 28.2 132.427 29.238 131.863 30.174C131.311 31.11 130.555 31.848 129.595 32.388C128.635 32.928 127.591 33.198 126.463 33.198ZM126.481 31.452C127.285 31.452 128.011 31.266 128.659 30.894C129.307 30.51 129.817 29.982 130.189 29.31C130.561 28.638 130.747 27.882 130.747 27.042C130.747 26.226 130.561 25.482 130.189 24.81C129.817 24.138 129.307 23.616 128.659 23.244C128.011 22.86 127.285 22.668 126.481 22.668C125.665 22.668 124.933 22.86 124.285 23.244C123.637 23.616 123.127 24.138 122.755 24.81C122.395 25.47 122.215 26.214 122.215 27.042C122.215 27.882 122.395 28.638 122.755 29.31C123.127 29.982 123.637 30.51 124.285 30.894C124.933 31.266 125.665 31.452 126.481 31.452ZM141.732 26.52C142.428 26.748 142.968 27.126 143.352 27.654C143.748 28.182 143.946 28.812 143.946 29.544C143.946 30.204 143.784 30.798 143.46 31.326C143.148 31.854 142.698 32.268 142.11 32.568C141.534 32.856 140.862 33 140.094 33H135V21.12H139.158C139.866 21.12 140.49 21.258 141.03 21.534C141.57 21.798 141.984 22.17 142.272 22.65C142.572 23.13 142.722 23.676 142.722 24.288C142.722 24.744 142.638 25.164 142.47 25.548C142.302 25.92 142.056 26.244 141.732 26.52ZM136.872 22.794V25.998H138.978C139.566 25.998 140.016 25.854 140.328 25.566C140.652 25.266 140.814 24.87 140.814 24.378C140.814 23.886 140.652 23.502 140.328 23.226C140.016 22.938 139.566 22.794 138.978 22.794H136.872ZM139.932 31.326C140.592 31.326 141.102 31.164 141.462 30.84C141.834 30.504 142.02 30.054 142.02 29.49C142.02 28.926 141.834 28.476 141.462 28.14C141.102 27.804 140.592 27.636 139.932 27.636H136.872V31.326H139.932ZM153.079 31.02H147.733L146.887 33H144.853L150.091 20.922H150.739L155.977 33H153.925L153.079 31.02ZM150.415 24.468L148.417 29.382H152.395L150.415 24.468ZM159.305 22.83H155.309V21.12H165.227V22.83H161.213V33H159.305V22.83ZM167.01 21.12H168.918V25.512H171.312C172.128 25.512 172.848 25.674 173.472 25.998C174.108 26.31 174.6 26.748 174.948 27.312C175.296 27.876 175.47 28.524 175.47 29.256C175.47 29.988 175.296 30.636 174.948 31.2C174.6 31.764 174.114 32.208 173.49 32.532C172.866 32.844 172.14 33 171.312 33H167.01V21.12ZM171.294 31.308C171.99 31.308 172.53 31.122 172.914 30.75C173.31 30.366 173.508 29.868 173.508 29.256C173.508 28.644 173.31 28.152 172.914 27.78C172.53 27.396 171.99 27.204 171.294 27.204H168.918V31.308H171.294ZM182.25 21.12H189.738V22.83H184.158V25.872H186.714C187.506 25.872 188.202 26.022 188.802 26.322C189.414 26.622 189.882 27.042 190.206 27.582C190.542 28.11 190.71 28.722 190.71 29.418C190.71 30.114 190.542 30.738 190.206 31.29C189.882 31.83 189.414 32.25 188.802 32.55C188.202 32.85 187.506 33 186.714 33H182.25V21.12ZM186.642 31.326C187.314 31.326 187.836 31.152 188.208 30.804C188.592 30.456 188.784 29.994 188.784 29.418C188.784 28.842 188.592 28.38 188.208 28.032C187.836 27.684 187.314 27.51 186.642 27.51H184.158V31.326H186.642ZM192.885 21.12H200.697V22.83H194.793V25.872H199.239V27.528H194.793V31.29H200.913V33H192.885V21.12ZM208.307 33.198C207.167 33.198 206.117 32.928 205.157 32.388C204.209 31.848 203.453 31.11 202.889 30.174C202.337 29.238 202.061 28.2 202.061 27.06C202.061 25.92 202.337 24.882 202.889 23.946C203.453 23.01 204.209 22.272 205.157 21.732C206.117 21.192 207.167 20.922 208.307 20.922C209.399 20.922 210.389 21.168 211.277 21.66C212.177 22.152 212.885 22.818 213.401 23.658L211.961 24.72C211.541 24.06 211.025 23.556 210.413 23.208C209.801 22.848 209.105 22.668 208.325 22.668C207.521 22.668 206.789 22.86 206.129 23.244C205.481 23.616 204.971 24.138 204.599 24.81C204.227 25.482 204.041 26.232 204.041 27.06C204.041 27.888 204.227 28.638 204.599 29.31C204.971 29.982 205.481 30.51 206.129 30.894C206.789 31.266 207.521 31.452 208.325 31.452C209.105 31.452 209.801 31.278 210.413 30.93C211.025 30.57 211.541 30.06 211.961 29.4L213.401 30.462C212.897 31.302 212.195 31.968 211.295 32.46C210.407 32.952 209.411 33.198 208.307 33.198ZM215.683 21.12H225.295V33H223.387V22.83H217.591V33H215.683V21.12ZM237.377 21.12V33H235.469V22.83H231.437C231.365 25.458 231.191 27.522 230.915 29.022C230.639 30.51 230.243 31.572 229.727 32.208C229.211 32.832 228.527 33.144 227.675 33.144C227.315 33.144 227.027 33.096 226.811 33V31.362C226.859 31.386 227.027 31.398 227.315 31.398C227.855 31.398 228.287 31.086 228.611 30.462C228.935 29.838 229.169 28.92 229.313 27.708C229.469 26.496 229.565 24.948 229.601 23.064L229.619 21.12H237.377ZM247.491 31.02H242.145L241.299 33H239.265L244.503 20.922H245.151L250.389 33H248.337L247.491 31.02ZM244.827 24.468L242.829 29.382H246.807L244.827 24.468ZM253.718 22.83H249.722V21.12H259.64V22.83H255.626V33H253.718V22.83ZM261.422 21.12H263.33V25.854H269.306V21.12H271.214V33H269.306V27.564H263.33V33H261.422V21.12ZM279.727 33.198C278.587 33.198 277.537 32.928 276.577 32.388C275.629 31.848 274.879 31.11 274.327 30.174C273.775 29.238 273.499 28.2 273.499 27.06C273.499 25.92 273.775 24.882 274.327 23.946C274.891 23.01 275.647 22.272 276.595 21.732C277.543 21.192 278.587 20.922 279.727 20.922C280.855 20.922 281.899 21.192 282.859 21.732C283.819 22.272 284.575 23.01 285.127 23.946C285.691 24.882 285.973 25.92 285.973 27.06C285.973 28.2 285.691 29.238 285.127 30.174C284.575 31.11 283.819 31.848 282.859 32.388C281.899 32.928 280.855 33.198 279.727 33.198ZM279.745 31.452C280.549 31.452 281.275 31.266 281.923 30.894C282.571 30.51 283.081 29.982 283.453 29.31C283.825 28.638 284.011 27.882 284.011 27.042C284.011 26.226 283.825 25.482 283.453 24.81C283.081 24.138 282.571 23.616 281.923 23.244C281.275 22.86 280.549 22.668 279.745 22.668C278.929 22.668 278.197 22.86 277.549 23.244C276.901 23.616 276.391 24.138 276.019 24.81C275.659 25.47 275.479 26.214 275.479 27.042C275.479 27.882 275.659 28.638 276.019 29.31C276.391 29.982 276.901 30.51 277.549 30.894C278.197 31.266 278.929 31.452 279.745 31.452Z" fill="white"></path> <defs> <linearGradient id="paint0_linear_313_1099" x1="166" y1="0" x2="166" y2="55" gradientUnits="userSpaceOnUse"> <stop stop-color="#FA00AF"></stop> <stop offset="1" stop-color="#81065E"></stop> </linearGradient> </defs> </svg> 