<?xml version="1.0" encoding="UTF-8"?> <svg xmlns="http://www.w3.org/2000/svg" width="86" height="16" viewBox="0 0 86 16" fill="none"> <g clip-path="url(#clip0_67_69)"> <path d="M52.5303 0H19.5303C18.4257 0 17.5303 0.89543 17.5303 2V14C17.5303 15.1046 18.4257 16 19.5303 16H52.5303C53.6348 16 54.5303 15.1046 54.5303 14V2C54.5303 0.89543 53.6348 0 52.5303 0Z" fill="#C921AA"></path> <path d="M20.1953 12.9001V3.1001H21.6933L25.9773 10.2541H25.1933L29.4073 3.1001H30.9053L30.9193 12.9001H29.1973L29.1833 5.8021H29.5473L25.9633 11.7801H25.1513L21.5113 5.8021H21.9313V12.9001H20.1953Z" fill="white"></path> <path d="M31.9004 12.9001L36.3104 3.1001H38.1024L42.5264 12.9001H40.6224L36.8284 4.0661H37.5564L33.7764 12.9001H31.9004ZM33.9304 10.6321L34.4204 9.2041H39.7124L40.2024 10.6321H33.9304Z" fill="white"></path> <path d="M43.4932 12.9001V3.1001H47.5252C48.3932 3.1001 49.1352 3.2401 49.7512 3.5201C50.3766 3.8001 50.8572 4.20143 51.1932 4.7241C51.5292 5.24676 51.6972 5.86743 51.6972 6.5861C51.6972 7.30476 51.5292 7.92543 51.1932 8.4481C50.8572 8.96143 50.3766 9.3581 49.7512 9.6381C49.1352 9.90876 48.3932 10.0441 47.5252 10.0441H44.5012L45.3132 9.2181V12.9001H43.4932ZM49.9052 12.9001L47.4272 9.3441H49.3732L51.8652 12.9001H49.9052ZM45.3132 9.4141L44.5012 8.5461H47.4412C48.2439 8.5461 48.8459 8.37343 49.2472 8.0281C49.6579 7.68276 49.8632 7.2021 49.8632 6.5861C49.8632 5.96076 49.6579 5.4801 49.2472 5.1441C48.8459 4.8081 48.2439 4.6401 47.4412 4.6401H44.5012L45.3132 3.7441V9.4141Z" fill="white"></path> <path d="M56.3828 12.9001V3.1001H60.4148C61.2828 3.1001 62.0248 3.2401 62.6408 3.5201C63.2662 3.8001 63.7468 4.20143 64.0828 4.7241C64.4188 5.24676 64.5868 5.86743 64.5868 6.5861C64.5868 7.30476 64.4188 7.92543 64.0828 8.4481C63.7468 8.97076 63.2662 9.3721 62.6408 9.6521C62.0248 9.9321 61.2828 10.0721 60.4148 10.0721H57.3908L58.2028 9.2181V12.9001H56.3828ZM58.2028 9.4141L57.3908 8.5321H60.3308C61.1335 8.5321 61.7355 8.3641 62.1368 8.0281C62.5475 7.68276 62.7528 7.2021 62.7528 6.5861C62.7528 5.96076 62.5475 5.4801 62.1368 5.1441C61.7355 4.8081 61.1335 4.6401 60.3308 4.6401H57.3908L58.2028 3.7441V9.4141Z" fill="white"></path> <path d="M66.124 12.9001V3.1001H67.944V11.3601H73.068V12.9001H66.124Z" fill="white"></path> <path d="M74.4971 12.9001L78.9071 3.1001H80.6991L85.1231 12.9001H83.2191L79.4251 4.0661H80.1531L76.3731 12.9001H74.4971ZM76.5271 10.6321L77.0171 9.2041H82.3091L82.7991 10.6321H76.5271Z" fill="white"></path> <path d="M14.0613 4.80272C14.0613 4.67329 13.9564 4.56836 13.827 4.56836H11.9521C11.8227 4.56836 11.7178 4.67329 11.7178 4.80272V14.1769C11.7178 14.3064 11.8227 14.4113 11.9521 14.4113H13.827C13.9564 14.4113 14.0613 14.3064 14.0613 14.1769V4.80272Z" fill="white"></path> <path d="M8.43631 9.02098C8.43631 8.89154 8.33139 8.78662 8.20196 8.78662H6.32712C6.19769 8.78662 6.09277 8.89154 6.09277 9.02098V14.1767C6.09277 14.3062 6.19769 14.4111 6.32712 14.4111H8.20196C8.33139 14.4111 8.43631 14.3062 8.43631 14.1767V9.02098Z" fill="white"></path> <path d="M2.8123 6.44333C2.8123 6.3139 2.70737 6.20898 2.57794 6.20898H0.703105C0.573674 6.20898 0.46875 6.3139 0.46875 6.44333V14.177C0.46875 14.3065 0.573674 14.4114 0.703105 14.4114H2.57794C2.70737 14.4114 2.8123 14.3065 2.8123 14.177V6.44333Z" fill="white"></path> <path d="M11.249 1.99058C11.249 2.89659 11.9834 3.63106 12.8894 3.63106C13.7955 3.63106 14.5299 2.89659 14.5299 1.99058C14.5299 1.08457 13.7955 0.350098 12.8894 0.350098C11.9834 0.350098 11.249 1.08457 11.249 1.99058Z" fill="white"></path> <path d="M0 3.6312C0 4.53722 0.73447 5.27169 1.64048 5.27169C2.5465 5.27169 3.28097 4.53722 3.28097 3.6312C3.28097 2.72519 2.5465 1.99072 1.64048 1.99072C0.73447 1.99072 0 2.72519 0 3.6312Z" fill="white"></path> <path d="M5.625 6.20885C5.625 7.11486 6.35947 7.84933 7.26548 7.84933C8.17149 7.84933 8.90596 7.11486 8.90596 6.20885C8.90596 5.30283 8.17149 4.56836 7.26548 4.56836C6.35947 4.56836 5.625 5.30283 5.625 6.20885Z" fill="white"></path> <path d="M13.7109 14.0615V4.91858H12.0674V14.0615H13.7109ZM8.08638 14.0615V9.13697H6.44284V14.0615H8.08638ZM2.46187 14.0615V6.55907H0.818319V14.0615H2.46187ZM11.5987 1.99068C11.5987 2.70339 12.1764 3.28116 12.8891 3.28116C13.6019 3.28116 14.1796 2.70339 14.1796 1.99068C14.1796 1.27797 13.6019 0.700195 12.8891 0.700195C12.1764 0.700195 11.5987 1.27797 11.5987 1.99068ZM0.349609 3.63116C0.349609 4.34388 0.927378 4.92165 1.64009 4.92165C2.35281 4.92165 2.93058 4.34388 2.93058 3.63116C2.93058 2.91845 2.35281 2.34068 1.64009 2.34068C0.927378 2.34068 0.349609 2.91845 0.349609 3.63116ZM5.97413 6.20907C5.97413 6.92178 6.55189 7.49955 7.26461 7.49955C7.97732 7.49955 8.55509 6.92178 8.55509 6.20907C8.55509 5.49635 7.97732 4.91858 7.26461 4.91858C6.55189 4.91858 5.97413 5.49635 5.97413 6.20907Z" stroke="#1A1A1A" stroke-width="0.7"></path> </g> <defs> <clipPath id="clip0_67_69"> <rect width="86" height="16" fill="white"></rect> </clipPath> </defs> </svg> 