<?xml version="1.0" encoding="UTF-8"?> <svg xmlns="http://www.w3.org/2000/svg" width="16" height="16" viewBox="0 0 16 16" fill="none"><path d="M16 8C16 12.4183 12.4183 16 8 16C3.58172 16 0 12.4183 0 8C0 3.58172 3.58172 0 8 0C12.4183 0 16 3.58172 16 8Z" fill="#F95FE0"></path><path d="M7.11491 3.72363H8.76437L8.51564 9.41818H7.37673L7.11491 3.72363ZM7.95273 12.5076C7.66473 12.5076 7.42037 12.4116 7.21964 12.2196C7.02764 12.0276 6.93164 11.7876 6.93164 11.4996C6.93164 11.2029 7.02764 10.9585 7.21964 10.7665C7.42037 10.5745 7.66473 10.4785 7.95273 10.4785C8.24073 10.4785 8.48073 10.5745 8.67273 10.7665C8.86473 10.9585 8.96073 11.2029 8.96073 11.4996C8.96073 11.7876 8.86473 12.0276 8.67273 12.2196C8.48073 12.4116 8.24073 12.5076 7.95273 12.5076Z" fill="white"></path></svg> 