<?xml version="1.0" encoding="UTF-8"?> <svg xmlns="http://www.w3.org/2000/svg" width="105" height="40" viewBox="0 0 105 40" fill="none"> <rect x="0.5" y="0.5" width="104" height="39" rx="9.5" stroke="#212842" stroke-opacity="0.7"></rect> <path d="M32.312 20.24C32.9307 20.4427 33.4107 20.7787 33.752 21.248C34.104 21.7173 34.28 22.2773 34.28 22.928C34.28 23.5147 34.136 24.0427 33.848 24.512C33.5707 24.9813 33.1707 25.3493 32.648 25.616C32.136 25.872 31.5387 26 30.856 26H26.328V15.44H30.024C30.6533 15.44 31.208 15.5627 31.688 15.808C32.168 16.0427 32.536 16.3733 32.792 16.8C33.0587 17.2267 33.192 17.712 33.192 18.256C33.192 18.6613 33.1173 19.0347 32.968 19.376C32.8187 19.7067 32.6 19.9947 32.312 20.24ZM27.992 16.928V19.776H29.864C30.3867 19.776 30.7867 19.648 31.064 19.392C31.352 19.1253 31.496 18.7733 31.496 18.336C31.496 17.8987 31.352 17.5573 31.064 17.312C30.7867 17.056 30.3867 16.928 29.864 16.928H27.992ZM30.712 24.512C31.2987 24.512 31.752 24.368 32.072 24.08C32.4027 23.7813 32.568 23.3813 32.568 22.88C32.568 22.3787 32.4027 21.9787 32.072 21.68C31.752 21.3813 31.2987 21.232 30.712 21.232H27.992V24.512H30.712ZM41.1146 26.176C40.1013 26.176 39.168 25.936 38.3146 25.456C37.472 24.976 36.8053 24.32 36.3146 23.488C35.824 22.656 35.5786 21.7333 35.5786 20.72C35.5786 19.7067 35.824 18.784 36.3146 17.952C36.816 17.12 37.488 16.464 38.3306 15.984C39.1733 15.504 40.1013 15.264 41.1146 15.264C42.1173 15.264 43.0453 15.504 43.8986 15.984C44.752 16.464 45.424 17.12 45.9146 17.952C46.416 18.784 46.6666 19.7067 46.6666 20.72C46.6666 21.7333 46.416 22.656 45.9146 23.488C45.424 24.32 44.752 24.976 43.8986 25.456C43.0453 25.936 42.1173 26.176 41.1146 26.176ZM41.1306 24.624C41.8453 24.624 42.4906 24.4587 43.0666 24.128C43.6426 23.7867 44.096 23.3173 44.4266 22.72C44.7573 22.1227 44.9226 21.4507 44.9226 20.704C44.9226 19.9787 44.7573 19.3173 44.4266 18.72C44.096 18.1227 43.6426 17.6587 43.0666 17.328C42.4906 16.9867 41.8453 16.816 41.1306 16.816C40.4053 16.816 39.7546 16.9867 39.1786 17.328C38.6026 17.6587 38.1493 18.1227 37.8186 18.72C37.4986 19.3067 37.3386 19.968 37.3386 20.704C37.3386 21.4507 37.4986 22.1227 37.8186 22.72C38.1493 23.3173 38.6026 23.7867 39.1786 24.128C39.7546 24.4587 40.4053 24.624 41.1306 24.624ZM57.535 15.264V26H55.839V18.624L49.295 26.176H48.703V15.44H50.399V22.8L56.943 15.264H57.535ZM53.247 14.432C52.479 14.432 51.855 14.1867 51.375 13.696C50.9057 13.2053 50.671 12.56 50.671 11.76V11.44H52.047V11.808C52.047 12.2453 52.1483 12.592 52.351 12.848C52.5643 13.0933 52.863 13.216 53.247 13.216C53.631 13.216 53.9297 13.0933 54.143 12.848C54.3563 12.6027 54.463 12.256 54.463 11.808V11.44H55.855V11.76C55.855 12.56 55.615 13.2053 55.135 13.696C54.655 14.1867 54.0257 14.432 53.247 14.432ZM62.6674 16.96H59.1154V15.44H67.9314V16.96H64.3634V26H62.6674V16.96ZM78.3475 15.264V26H76.6515V18.624L70.1075 26.176H69.5155V15.44H71.2115V22.8L77.7555 15.264H78.3475Z" fill="#212842" fill-opacity="0.7"></path> </svg> 