<?xml version="1.0" encoding="UTF-8"?> <svg xmlns="http://www.w3.org/2000/svg" width="86" height="16" viewBox="0 0 86 16" fill="none"> <rect x="17.53" width="37" height="16" rx="2" fill="#C921AA"></rect> <path d="M20.1953 12.9V3.10001H21.6933L25.9773 10.254H25.1933L29.4073 3.10001H30.9053L30.9193 12.9H29.1973L29.1833 5.80201H29.5473L25.9633 11.78H25.1513L21.5113 5.80201H21.9313V12.9H20.1953Z" fill="white"></path> <path d="M31.9004 12.9L36.3104 3.10001H38.1024L42.5264 12.9H40.6224L36.8284 4.06601H37.5564L33.7764 12.9H31.9004ZM33.9304 10.632L34.4204 9.20401H39.7124L40.2024 10.632H33.9304Z" fill="white"></path> <path d="M43.4927 12.9V3.10001H47.5247C48.3927 3.10001 49.1347 3.24001 49.7507 3.52001C50.3761 3.80001 50.8567 4.20134 51.1927 4.72401C51.5287 5.24667 51.6967 5.86734 51.6967 6.58601C51.6967 7.30467 51.5287 7.92534 51.1927 8.44801C50.8567 8.96134 50.3761 9.35801 49.7507 9.63801C49.1347 9.90867 48.3927 10.044 47.5247 10.044H44.5007L45.3127 9.21801V12.9H43.4927ZM49.9047 12.9L47.4267 9.34401H49.3727L51.8647 12.9H49.9047ZM45.3127 9.41401L44.5007 8.54601H47.4407C48.2434 8.54601 48.8454 8.37334 49.2467 8.02801C49.6574 7.68267 49.8627 7.20201 49.8627 6.58601C49.8627 5.96067 49.6574 5.48001 49.2467 5.14401C48.8454 4.80801 48.2434 4.64001 47.4407 4.64001H44.5007L45.3127 3.74401V9.41401Z" fill="white"></path> <path d="M56.3829 12.9V3.10001H60.4149C61.2829 3.10001 62.0249 3.24001 62.6409 3.52001C63.2663 3.80001 63.7469 4.20134 64.0829 4.72401C64.4189 5.24667 64.5869 5.86734 64.5869 6.58601C64.5869 7.30467 64.4189 7.92534 64.0829 8.44801C63.7469 8.97067 63.2663 9.37201 62.6409 9.65201C62.0249 9.93201 61.2829 10.072 60.4149 10.072H57.3909L58.2029 9.21801V12.9H56.3829ZM58.2029 9.41401L57.3909 8.53201H60.3309C61.1336 8.53201 61.7356 8.36401 62.1369 8.02801C62.5476 7.68267 62.7529 7.20201 62.7529 6.58601C62.7529 5.96067 62.5476 5.48001 62.1369 5.14401C61.7356 4.80801 61.1336 4.64001 60.3309 4.64001H57.3909L58.2029 3.74401V9.41401Z" fill="#333333"></path> <path d="M66.1244 12.9V3.10001H67.9444V11.36H73.0684V12.9H66.1244Z" fill="#333333"></path> <path d="M74.4969 12.9L78.9069 3.10001H80.6989L85.1229 12.9H83.2189L79.4249 4.06601H80.1529L76.3729 12.9H74.4969ZM76.5269 10.632L77.0169 9.20401H82.3089L82.7989 10.632H76.5269Z" fill="#333333"></path> <path d="M14.0613 4.80275C14.0613 4.67332 13.9564 4.56839 13.827 4.56839H11.9521C11.8227 4.56839 11.7178 4.67332 11.7178 4.80275V14.1769C11.7178 14.3064 11.8227 14.4113 11.9521 14.4113H13.827C13.9564 14.4113 14.0613 14.3064 14.0613 14.1769V4.80275Z" fill="white"></path> <path d="M8.4368 9.02114C8.4368 8.8917 8.33188 8.78678 8.20245 8.78678H6.32761C6.19818 8.78678 6.09326 8.8917 6.09326 9.02114V14.1769C6.09326 14.3064 6.19818 14.4113 6.32761 14.4113H8.20245C8.33188 14.4113 8.4368 14.3064 8.4368 14.1769V9.02114Z" fill="white"></path> <path d="M2.81229 6.44323C2.81229 6.3138 2.70736 6.20888 2.57793 6.20888H0.703094C0.573663 6.20888 0.468739 6.3138 0.468739 6.44323V14.1769C0.468739 14.3064 0.573663 14.4113 0.703094 14.4113H2.57793C2.70736 14.4113 2.81229 14.3064 2.81229 14.1769V6.44323Z" fill="white"></path> <path d="M11.2491 1.99049C11.2491 2.8965 11.9835 3.63097 12.8895 3.63097C13.7956 3.63097 14.53 2.8965 14.53 1.99049C14.53 1.08448 13.7956 0.350006 12.8895 0.350006C11.9835 0.350006 11.2491 1.08448 11.2491 1.99049Z" fill="white"></path> <path d="M2.92957e-05 3.63097C2.92957e-05 4.53699 0.734499 5.27146 1.64051 5.27146C2.54653 5.27146 3.281 4.53699 3.281 3.63097C3.281 2.72496 2.54653 1.99049 1.64051 1.99049C0.734499 1.99049 2.92957e-05 2.72496 2.92957e-05 3.63097Z" fill="white"></path> <path d="M5.62455 6.20888C5.62455 7.11489 6.35902 7.84936 7.26503 7.84936C8.17104 7.84936 8.90551 7.11489 8.90551 6.20888C8.90551 5.30286 8.17104 4.56839 7.26503 4.56839C6.35902 4.56839 5.62455 5.30286 5.62455 6.20888Z" fill="white"></path> <path d="M13.7113 14.0613V4.91839H12.0678V14.0613H13.7113ZM8.0868 14.0613V9.13678H6.44326V14.0613H8.0868ZM2.46229 14.0613V6.55888H0.818739V14.0613H2.46229ZM11.5991 1.99049C11.5991 2.7032 12.1768 3.28097 12.8895 3.28097C13.6023 3.28097 14.18 2.7032 14.18 1.99049C14.18 1.27778 13.6023 0.700006 12.8895 0.700006C12.1768 0.700006 11.5991 1.27778 11.5991 1.99049ZM0.350029 3.63097C0.350029 4.34369 0.927798 4.92146 1.64051 4.92146C2.35323 4.92146 2.931 4.34369 2.931 3.63097C2.931 2.91826 2.35323 2.34049 1.64051 2.34049C0.927798 2.34049 0.350029 2.91826 0.350029 3.63097ZM5.97455 6.20888C5.97455 6.92159 6.55231 7.49936 7.26503 7.49936C7.97774 7.49936 8.55551 6.92159 8.55551 6.20888C8.55551 5.49616 7.97774 4.91839 7.26503 4.91839C6.55231 4.91839 5.97455 5.49616 5.97455 6.20888Z" stroke="#1A1A1A" stroke-width="0.7"></path> </svg> 