<?xml version="1.0" encoding="UTF-8"?> <svg xmlns="http://www.w3.org/2000/svg" width="71" height="106" viewBox="0 0 71 106" fill="none"> <path fill-rule="evenodd" clip-rule="evenodd" d="M0 56.2399H26.92L64.36 106H70.6L33.16 56.0799C41.2667 55.2266 47.56 52.2399 52.04 47.1199C56.6267 41.9999 58.92 35.7066 58.92 28.2399C58.92 20.1332 56.2 13.4666 50.76 8.23991C45.4267 3.01324 38.0133 0.399902 28.52 0.399902H0V5.0399H28.2C36.4133 5.0399 42.7067 7.22657 47.08 11.5999C51.4533 15.9732 53.64 21.5732 53.64 28.3999C53.64 35.2266 51.4533 40.8266 47.08 45.1999C42.7067 49.4666 36.4133 51.5999 28.2 51.5999H0V56.2399Z" fill="white" fill-opacity="0.3"></path> </svg> 