<?xml version="1.0" encoding="UTF-8"?> <svg xmlns="http://www.w3.org/2000/svg" width="30" height="30" viewBox="0 0 30 30" fill="none"> <circle cx="15" cy="15" r="15" fill="white"></circle> <path fill-rule="evenodd" clip-rule="evenodd" d="M11.5929 7.04009C10.7027 7.14284 10.3365 7.20067 9.89865 7.30769C9.35849 7.43968 8.84503 7.65196 8.4992 7.8862C8.01565 8.2137 7.64611 8.72163 7.43785 9.34496C7.28887 9.79092 7.23444 10.0878 7.10345 11.169L7.01149 11.9279L7.00576 13.4205L7 14.9132L7.06316 14.905C7.09786 14.9006 7.3342 14.888 7.58833 14.877C9.06074 14.8136 9.78894 14.7484 10.7169 14.5967C11.846 14.4122 12.5824 14.1363 13.1708 13.6772C13.379 13.5148 13.7007 13.1777 13.8601 12.9551C14.023 12.7274 14.2722 12.2309 14.3756 11.9279C14.6238 11.2005 14.6945 10.653 14.8457 8.28721C14.8826 7.71133 14.918 7.18612 14.9245 7.12009L14.9362 7L13.4186 7.00227C12.0753 7.00428 11.8655 7.00864 11.5929 7.04009ZM15.0872 7.03363C15.0872 7.11927 15.1673 8.53562 15.1939 8.92122C15.2921 10.3432 15.4524 11.3456 15.688 12.0096C15.851 12.4691 16.1246 12.9413 16.4336 13.2966C16.7972 13.7145 17.346 14.0837 17.9279 14.3019C18.5777 14.5454 19.3232 14.6518 21.1518 14.7618C21.7118 14.7955 22.1336 14.8226 22.8102 14.8683L22.9765 14.8795L22.9906 14.5623C23.0135 14.0439 22.9892 12.3084 22.9531 11.8895C22.9091 11.3782 22.8369 10.7745 22.7577 10.2565C22.6534 9.57449 22.5749 9.29542 22.374 8.89239C21.989 8.12023 21.2947 7.59343 20.3346 7.34493C19.9942 7.25684 19.6288 7.20268 18.7837 7.11505C18.5772 7.09367 18.3165 7.059 18.2043 7.03808C18.0125 7.00224 17.9144 7 16.5438 7C15.1694 7 15.0872 7.00189 15.0872 7.03363ZM7.00113 16.4801V17.8912L7.08794 18.6079C7.22604 19.7477 7.29958 20.1633 7.43607 20.5746C7.6946 21.3539 8.11939 21.9016 8.74351 22.2605C8.98726 22.4007 9.26787 22.5017 9.74461 22.6209C10.349 22.772 10.6857 22.8247 11.2656 22.8592C12.2154 22.9156 14.8113 23.0165 14.8301 22.9977C14.8362 22.9916 14.8424 22.5949 14.8439 22.1162C14.8462 21.3474 14.8414 21.1897 14.8024 20.7655C14.676 19.3897 14.5543 18.6435 14.3622 18.0662C13.9258 16.7549 12.9827 15.8733 11.6405 15.5222C11.1107 15.3836 10.4495 15.3059 9.01303 15.2136C8.11165 15.1556 7.81824 15.1341 7.4247 15.0972C7.26057 15.0818 7.09812 15.0692 7.06371 15.0691L7.00113 15.0691V16.4801ZM22.7786 15.1013C22.7256 15.1046 22.4874 15.1204 22.2492 15.1364C22.0109 15.1523 21.5344 15.1827 21.1903 15.2039C19.2492 15.3235 18.4966 15.4335 17.8574 15.6909C16.5518 16.2169 15.7735 17.227 15.4648 18.7962C15.3646 19.3055 15.3073 19.7844 15.2222 20.8235C15.1714 21.4441 15.1642 21.6209 15.1642 22.2509V22.97L16.536 22.9594C17.8784 22.9491 18.1482 22.9393 18.7741 22.8781C19.5053 22.8065 20.2778 22.6576 20.7208 22.5028C21.6084 22.1926 22.2254 21.5775 22.5356 20.6936C22.6649 20.325 22.8085 19.6306 22.8821 19.0172C22.9749 18.2444 22.9994 17.6667 22.9997 16.2458L23 15.0883L22.9374 15.0918C22.903 15.0937 22.8315 15.098 22.7786 15.1013Z" fill="#212842"></path> </svg> 