<?xml version="1.0" encoding="UTF-8"?> <svg xmlns="http://www.w3.org/2000/svg" width="30" height="30" viewBox="0 0 30 30" fill="none"> <circle cx="15" cy="15" r="15" fill="white"></circle> <path d="M23.7748 11.543C23.6041 10.1954 22.8256 9.35006 21.4437 9.22522C19.8615 9.08226 16.4364 9 14.8477 9C11.5981 9 10.1459 9.07938 8.60917 9.23843C7.14473 9.38974 6.50364 10.0405 6.25164 11.384C6.07517 12.3254 6 13.2072 6 15.2911C6 17.1631 6.08842 18.3404 6.22522 19.3309C6.41332 20.6911 7.34701 21.4555 8.71534 21.5694C10.3072 21.702 13.4962 21.7681 15.0729 21.7681C16.5964 21.7681 20.0251 21.6887 21.5496 21.5164C22.914 21.3622 23.5628 20.6334 23.7748 19.2912C23.7748 19.2912 24 17.8209 24 15.2779C24 13.8299 23.8942 12.4832 23.7748 11.543ZM13.0861 17.9139V12.7394L18.0131 15.3001L13.0861 17.9139Z" fill="#212842"></path> </svg> 