<?xml version="1.0" encoding="UTF-8"?> <svg xmlns="http://www.w3.org/2000/svg" width="30" height="30" viewBox="0 0 30 30" fill="none"> <circle cx="15" cy="15" r="15" fill="white"></circle> <path d="M20.6359 9.1177C20.6359 9.1177 22.116 8.54058 21.9927 9.94221C21.9516 10.5194 21.5816 12.5394 21.2938 14.7243L20.307 21.1965C20.307 21.1965 20.2248 22.1447 19.4847 22.3096C18.7446 22.4745 17.6346 21.7325 17.429 21.5675C17.2645 21.4439 14.3454 19.5888 13.3176 18.6818C13.0298 18.4345 12.7008 17.9398 13.3587 17.3626L17.6757 13.2402C18.1691 12.7455 18.6624 11.5912 16.6067 12.9928L10.8507 16.9092C10.8507 16.9092 10.1929 17.3214 8.95946 16.9504L6.28702 16.1259C6.28702 16.1259 5.30027 15.5075 6.98596 14.8892C11.0974 12.9516 16.1545 10.9728 20.6359 9.1177Z" fill="#212842"></path> </svg> 