<?xml version="1.0" encoding="UTF-8"?> <svg xmlns="http://www.w3.org/2000/svg" width="30" height="30" viewBox="0 0 30 30" fill="none"> <circle cx="15" cy="15" r="15" fill="white"></circle> <path d="M15.3033 8.01166C16.0565 8 16.8054 8.00691 17.5534 8C17.5987 8.88096 17.9155 9.77832 18.5604 10.4012C19.204 11.0396 20.1143 11.3318 21 11.4306V13.7481C20.17 13.7209 19.336 13.5482 18.5828 13.1908C18.2548 13.0424 17.9492 12.8512 17.6501 12.6556C17.6462 14.3372 17.657 16.0168 17.6393 17.6915C17.5944 18.4961 17.3289 19.2967 16.8611 19.9597C16.1083 21.0634 14.8017 21.783 13.4598 21.8054C12.6366 21.8525 11.8144 21.628 11.113 21.2145C9.95057 20.5291 9.13262 19.2743 9.01348 17.9276C8.99967 17.6397 8.99495 17.3522 9.00658 17.0713C9.11019 15.9762 9.65188 14.9286 10.4927 14.216C11.4458 13.3859 12.7808 12.9906 14.0308 13.2245C14.0425 14.077 14.0084 14.9286 14.0084 15.7811C13.4373 15.5963 12.77 15.6481 12.2711 15.9947C11.9067 16.2308 11.6301 16.5925 11.4859 17.0018C11.3668 17.2935 11.4009 17.6177 11.4078 17.9276C11.5446 18.872 12.4528 19.6658 13.4222 19.5799C14.0649 19.573 14.6809 19.2001 15.0158 18.654C15.1241 18.4628 15.2454 18.2673 15.2519 18.0424C15.3085 17.013 15.286 15.9878 15.2929 14.9584C15.2977 12.6383 15.286 10.3248 15.3037 8.0121L15.3033 8.01166Z" fill="#212842"></path> </svg> 