<?xml version="1.0" encoding="UTF-8"?> <svg xmlns="http://www.w3.org/2000/svg" width="30" height="30" viewBox="0 0 30 30" fill="none"> <circle cx="15" cy="15" r="15" fill="white"></circle> <path fill-rule="evenodd" clip-rule="evenodd" d="M18.3946 7H11.6054C9.06611 7 7 9.06586 7 11.6054V18.4569C7 20.9962 9.06586 23.0623 11.6054 23.0623H18.3946C20.9341 23.0623 23 20.9962 23 18.4569V11.6054C23 9.06611 20.9341 7 18.3946 7ZM21.4759 18.4569C21.4759 20.1559 20.0936 21.5381 18.3946 21.5381H11.6054C9.90643 21.5381 8.52413 20.1559 8.52413 18.4569V11.6054C8.52413 9.90643 9.90643 8.52413 11.6054 8.52413H18.3946C20.0936 8.52413 21.4759 9.90643 21.4759 11.6054V18.4569ZM15.0127 10.8695C12.71 10.8695 10.8363 12.7231 10.8363 15.0017C10.8363 17.2801 12.7098 19.1337 15.0127 19.1337C17.3154 19.1337 19.1892 17.2801 19.1892 15.0017C19.1892 12.7231 17.3154 10.8695 15.0127 10.8695ZM15.0127 17.6124C13.5485 17.6124 12.3575 16.4411 12.3575 15.0017C12.3575 13.5621 13.5485 12.391 15.0127 12.391C16.4766 12.391 17.6679 13.5621 17.6679 15.0017C17.6679 16.4413 16.4769 17.6124 15.0127 17.6124ZM20.2466 10.7007C20.2466 11.2434 19.8067 11.6834 19.2639 11.6834C18.7212 11.6834 18.2812 11.2434 18.2812 10.7007C18.2812 10.158 18.7212 9.71802 19.2639 9.71802C19.8067 9.71802 20.2466 10.158 20.2466 10.7007Z" fill="#212842"></path> </svg> 