<?xml version="1.0" encoding="UTF-8"?> <svg xmlns="http://www.w3.org/2000/svg" width="89" height="17" viewBox="0 0 89 17" fill="none"> <path d="M7.54894 2.92705C7.8483 2.00574 9.1517 2.00574 9.45106 2.92705L10.1839 5.18237C10.3177 5.5944 10.7017 5.87336 11.1349 5.87336L13.5063 5.87336C14.475 5.87336 14.8778 7.11297 14.0941 7.68237L12.1756 9.07624C11.8251 9.33088 11.6784 9.78225 11.8123 10.1943L12.5451 12.4496C12.8445 13.3709 11.79 14.137 11.0063 13.5676L9.08778 12.1738C8.7373 11.9191 8.2627 11.9191 7.91221 12.1738L5.99372 13.5676C5.21001 14.137 4.15553 13.3709 4.45488 12.4496L5.18768 10.1943C5.32155 9.78225 5.1749 9.33088 4.82441 9.07624L2.90592 7.68237C2.1222 7.11297 2.52498 5.87336 3.4937 5.87336L5.86509 5.87336C6.29832 5.87336 6.68227 5.5944 6.81614 5.18237L7.54894 2.92705Z" fill="#FFB800"></path> <path d="M25.5489 2.92705C25.8483 2.00574 27.1517 2.00574 27.4511 2.92705L28.1839 5.18237C28.3177 5.5944 28.7017 5.87336 29.1349 5.87336L31.5063 5.87336C32.475 5.87336 32.8778 7.11297 32.0941 7.68237L30.1756 9.07624C29.8251 9.33088 29.6784 9.78225 29.8123 10.1943L30.5451 12.4496C30.8445 13.3709 29.79 14.137 29.0063 13.5676L27.0878 12.1738C26.7373 11.9191 26.2627 11.9191 25.9122 12.1738L23.9937 13.5676C23.21 14.137 22.1555 13.3709 22.4549 12.4496L23.1877 10.1943C23.3216 9.78225 23.1749 9.33088 22.8244 9.07624L20.9059 7.68237C20.1222 7.11297 20.525 5.87336 21.4937 5.87336L23.8651 5.87336C24.2983 5.87336 24.6823 5.5944 24.8161 5.18237L25.5489 2.92705Z" fill="#FFB800"></path> <path d="M43.5489 2.92705C43.8483 2.00574 45.1517 2.00574 45.4511 2.92705L46.1839 5.18237C46.3177 5.5944 46.7017 5.87336 47.1349 5.87336L49.5063 5.87336C50.475 5.87336 50.8778 7.11297 50.0941 7.68237L48.1756 9.07624C47.8251 9.33088 47.6784 9.78225 47.8123 10.1943L48.5451 12.4496C48.8445 13.3709 47.79 14.137 47.0063 13.5676L45.0878 12.1738C44.7373 11.9191 44.2627 11.9191 43.9122 12.1738L41.9937 13.5676C41.21 14.137 40.1555 13.3709 40.4549 12.4496L41.1877 10.1943C41.3216 9.78225 41.1749 9.33088 40.8244 9.07624L38.9059 7.68237C38.1222 7.11297 38.525 5.87336 39.4937 5.87336L41.8651 5.87336C42.2983 5.87336 42.6823 5.5944 42.8161 5.18237L43.5489 2.92705Z" fill="#FFB800"></path> <path d="M61.5489 2.92705C61.8483 2.00574 63.1517 2.00574 63.4511 2.92705L64.1839 5.18237C64.3177 5.5944 64.7017 5.87336 65.1349 5.87336L67.5063 5.87336C68.475 5.87336 68.8778 7.11297 68.0941 7.68237L66.1756 9.07624C65.8251 9.33088 65.6784 9.78225 65.8123 10.1943L66.5451 12.4496C66.8445 13.3709 65.79 14.137 65.0063 13.5676L63.0878 12.1738C62.7373 11.9191 62.2627 11.9191 61.9122 12.1738L59.9937 13.5676C59.21 14.137 58.1555 13.3709 58.4549 12.4496L59.1877 10.1943C59.3216 9.78225 59.1749 9.33088 58.8244 9.07624L56.9059 7.68237C56.1222 7.11297 56.525 5.87336 57.4937 5.87336L59.8651 5.87336C60.2983 5.87336 60.6823 5.5944 60.8161 5.18237L61.5489 2.92705Z" fill="#FFB800"></path> <path d="M79.5489 2.92705C79.8483 2.00574 81.1517 2.00574 81.4511 2.92705L82.1839 5.18237C82.3177 5.5944 82.7017 5.87336 83.1349 5.87336L85.5063 5.87336C86.475 5.87336 86.8778 7.11297 86.0941 7.68237L84.1756 9.07624C83.8251 9.33088 83.6784 9.78225 83.8123 10.1943L84.5451 12.4496C84.8445 13.3709 83.79 14.137 83.0063 13.5676L81.0878 12.1738C80.7373 11.9191 80.2627 11.9191 79.9122 12.1738L77.9937 13.5676C77.21 14.137 76.1555 13.3709 76.4549 12.4496L77.1877 10.1943C77.3216 9.78225 77.1749 9.33088 76.8244 9.07624L74.9059 7.68237C74.1222 7.11297 74.525 5.87336 75.4937 5.87336L77.8651 5.87336C78.2983 5.87336 78.6823 5.5944 78.8161 5.18237L79.5489 2.92705Z" fill="#FFB800"></path> </svg> 