<?xml version="1.0" encoding="UTF-8"?> <svg xmlns="http://www.w3.org/2000/svg" width="170" height="40" viewBox="0 0 170 40" fill="none"> <rect width="170" height="40" rx="10" fill="url(#paint0_linear_313_1427)"></rect> <path d="M30.328 15.44H34.184C34.888 15.44 35.512 15.5787 36.056 15.856C36.6 16.1227 37.0213 16.5013 37.32 16.992C37.6187 17.4827 37.768 18.0427 37.768 18.672C37.768 19.3013 37.6187 19.8613 37.32 20.352C37.0213 20.8427 36.6 21.2267 36.056 21.504C35.512 21.7813 34.888 21.92 34.184 21.92H32.024V26H30.328V15.44ZM34.152 20.416C34.7493 20.416 35.208 20.2613 35.528 19.952C35.8587 19.632 36.024 19.2107 36.024 18.688C36.024 18.1653 35.8587 17.744 35.528 17.424C35.208 17.104 34.7493 16.944 34.152 16.944H32.024V20.416H34.152ZM39.6561 15.44H46.6001V16.96H41.3521V19.664H45.3041V21.136H41.3521V24.48H46.7921V26H39.6561V15.44ZM48.7655 15.44H55.2935V16.96H50.4615V26H48.7655V15.44ZM65.8319 15.264V26H64.1359V18.624L57.5919 26.176H56.9999V15.44H58.6959V22.8L65.2399 15.264H65.8319ZM73.3963 26.176C72.3829 26.176 71.4496 25.936 70.5963 25.456C69.7536 24.976 69.0816 24.32 68.5803 23.488C68.0896 22.656 67.8443 21.7333 67.8443 20.72C67.8443 19.7067 68.0896 18.784 68.5803 17.952C69.0816 17.12 69.7536 16.464 70.5963 15.984C71.4496 15.504 72.3829 15.264 73.3963 15.264C74.3669 15.264 75.2469 15.4827 76.0363 15.92C76.8363 16.3573 77.4656 16.9493 77.9243 17.696L76.6443 18.64C76.2709 18.0533 75.8123 17.6053 75.2683 17.296C74.7243 16.976 74.1056 16.816 73.4123 16.816C72.6976 16.816 72.0469 16.9867 71.4603 17.328C70.8843 17.6587 70.4309 18.1227 70.1003 18.72C69.7696 19.3173 69.6043 19.984 69.6043 20.72C69.6043 21.456 69.7696 22.1227 70.1003 22.72C70.4309 23.3173 70.8843 23.7867 71.4603 24.128C72.0469 24.4587 72.6976 24.624 73.4123 24.624C74.1056 24.624 74.7243 24.4693 75.2683 24.16C75.8123 23.84 76.2709 23.3867 76.6443 22.8L77.9243 23.744C77.4763 24.4907 76.8523 25.0827 76.0523 25.52C75.2629 25.9573 74.3776 26.176 73.3963 26.176ZM82.433 16.96H78.881V15.44H87.697V16.96H84.129V26H82.433V16.96ZM89.2811 15.44H93.1371C93.8411 15.44 94.4651 15.5787 95.0091 15.856C95.5531 16.1227 95.9745 16.5013 96.2731 16.992C96.5718 17.4827 96.7211 18.0427 96.7211 18.672C96.7211 19.3013 96.5718 19.8613 96.2731 20.352C95.9745 20.8427 95.5531 21.2267 95.0091 21.504C94.4651 21.7813 93.8411 21.92 93.1371 21.92H90.9771V26H89.2811V15.44ZM93.1051 20.416C93.7025 20.416 94.1611 20.2613 94.4811 19.952C94.8118 19.632 94.9771 19.2107 94.9771 18.688C94.9771 18.1653 94.8118 17.744 94.4811 17.424C94.1611 17.104 93.7025 16.944 93.1051 16.944H90.9771V20.416H93.1051ZM103.664 24.24H98.912L98.16 26H96.352L101.008 15.264H101.584L106.24 26H104.416L103.664 24.24ZM101.296 18.416L99.52 22.784H103.056L101.296 18.416ZM116.114 26H107.922V15.44H109.618V24.48H114.738V15.44H116.434V24.48H117.762V28.256H116.114V26ZM128.348 15.264V26H126.652V18.624L120.108 26.176H119.516V15.44H121.212V22.8L127.756 15.264H128.348ZM138.344 15.44V26H136.648V22.192H134.904L132.184 26H130.328L133.208 21.936C132.493 21.68 131.928 21.2747 131.512 20.72C131.096 20.1653 130.888 19.5253 130.888 18.8C130.888 18.1387 131.048 17.5573 131.368 17.056C131.688 16.544 132.136 16.1493 132.712 15.872C133.299 15.584 133.971 15.44 134.728 15.44H138.344ZM136.648 16.944H134.696C134.067 16.944 133.565 17.1147 133.192 17.456C132.819 17.7973 132.632 18.2507 132.632 18.816C132.632 19.3813 132.819 19.8347 133.192 20.176C133.576 20.5067 134.077 20.672 134.696 20.672H136.648V16.944Z" fill="white"></path> <defs> <linearGradient id="paint0_linear_313_1427" x1="85" y1="0" x2="85" y2="40" gradientUnits="userSpaceOnUse"> <stop stop-color="#354273"></stop> <stop offset="1" stop-color="#212842"></stop> </linearGradient> </defs> </svg> 