<?xml version="1.0" encoding="UTF-8"?> <svg xmlns="http://www.w3.org/2000/svg" width="28" height="28" viewBox="0 0 28 28" fill="none"><path d="M28 14C28 21.732 21.732 28 14 28C6.26801 28 0 21.732 0 14C0 6.26801 6.26801 0 14 0C21.732 0 28 6.26801 28 14Z" fill="#CAD4E7"></path><path d="M12.363 6.8425H15.6032L15.1 15.2548H12.8863L12.363 6.8425ZM14.0334 20.3665C13.4833 20.3665 13.0272 20.1921 12.6649 19.8433C12.3161 19.481 12.1417 19.0315 12.1417 18.4949C12.1417 17.9716 12.3161 17.5289 12.6649 17.1666C13.0272 16.8044 13.4833 16.6232 14.0334 16.6232C14.5567 16.6232 14.9927 16.8044 15.3415 17.1666C15.7038 17.5289 15.8849 17.9716 15.8849 18.4949C15.8849 19.0315 15.7038 19.481 15.3415 19.8433C14.9927 20.1921 14.5567 20.3665 14.0334 20.3665Z" fill="#222941"></path></svg> 